<svg width="126" height="131" viewBox="0 0 126 131" fill="none" xmlns="http://www.w3.org/2000/svg">
<path d="M21 109.167C18.1125 109.167 15.6406 108.098 13.5844 105.96C11.5281 103.822 10.5 101.252 10.5 98.25V32.75C10.5 29.7479 11.5281 27.178 13.5844 25.0401C15.6406 22.9023 18.1125 21.8333 21 21.8333H105C107.887 21.8333 110.359 22.9023 112.416 25.0401C114.472 27.178 115.5 29.7479 115.5 32.75V98.25C115.5 101.252 114.472 103.822 112.416 105.96C110.359 108.098 107.887 109.167 105 109.167H21ZM21 81.875H105V32.75H21V81.875Z" fill="black"/>
</svg>
